# xmcd
#
# Track frame offsets:
#	150
#	19642
#	42617
#	58335
#	73197
#	92525
#	110255
#	130297
#	150150
#	170942
#	184437
#	204765
#	219002
#	238605
#	262470
#	284252
#	307262
#	326527
#
# Disc length: 4616 seconds
#
# Revision: 0
# Processed by: cddbd v1.4b42PL1 Copyright (c) Steve Scherf et al.
# Submitted via: EZCDDA 4.3.3.2
#
DISCID=10120612
DTITLE=Brenda Russell - Ultimate Collection
DYEAR=1900
DGENRE=
TTITLE0=Way Back When
TTITLE1=Please Pardon Me (You Remind Me Of A Friend)
TTITLE2=Who Loves You
TTITLE3=So Good, So Right
TTITLE4=If Only For One Night
TTITLE5=In The Thick Of It
TTITLE6=Something I Like To Do
TTITLE7=Rainbow
TTITLE8=If You Love (The One You Lose)
TTITLE9=I Want Love To Find Me
TTITLE10=Dinner With Gershwin
TTITLE11=Jarreau
TTITLE12=When I Give My Love To You
TTITLE13=Piano In The Dark
TTITLE14=Get Here
TTITLE15=Waiting For You
TTITLE16=Kiss Me With The Wind
TTITLE17=No Time For Time
EXTD=
EXTT0=
EXTT1=
EXTT2=
EXTT3=
EXTT4=
EXTT5=
EXTT6=
EXTT7=
EXTT8=
EXTT9=
EXTT10=
EXTT11=
EXTT12=
EXTT13=
EXTT14=
EXTT15=
EXTT16=
EXTT17=
PLAYORDER=
